<svg width="36" height="36" viewBox="0 0 36 36" xmlns="http://www.w3.org/2000/svg"><title>UI/icons/color/google</title><g fill="none" fill-rule="evenodd"><path d="M34.44 18.6c0-1.15-.1-2.26-.3-3.32h-15.6v6.28h8.92a7.46 7.46 0 0 1-3.3 4.9v4.07h5.34c3.13-2.82 4.94-6.98 4.94-11.93z" fill="#4285F4"/><path d="M18.55 34.47c4.47 0 8.21-1.46 10.95-3.94l-5.35-4.07a10.09 10.09 0 0 1-5.6 1.55 9.84 9.84 0 0 1-9.26-6.7H3.76v4.21a16.58 16.58 0 0 0 14.79 8.95z" fill="#34A853"/><path d="M9.29 21.32a9.6 9.6 0 0 1 0-6.17v-4.2H3.76a15.98 15.98 0 0 0 0 14.57l5.53-4.2z" fill="#FBBC05"/><path d="M18.55 8.46c2.43 0 4.61.82 6.33 2.42l4.74-4.65A16.08 16.08 0 0 0 18.55 2a16.58 16.58 0 0 0-14.79 8.94l5.53 4.2a9.84 9.84 0 0 1 9.26-6.68z" fill="#EA4335"/></g></svg>